<?xml version="1.0" encoding="iso-8859-1"?>
<!-- Uploaded to: SVG Repo, www.svgrepo.com, Generator: SVG Repo Mixer Tools -->
<svg height="800px" width="800px" version="1.1" id="Layer_1" xmlns="http://www.w3.org/2000/svg" xmlns:xlink="http://www.w3.org/1999/xlink" 
	 viewBox="0 0 512.002 512.002" xml:space="preserve">
<path style="fill:#BDFDFF;" d="M488.727,0.001H256H23.273c-7.23,0-13.689,3.297-17.959,8.47c-1.896,2.298-3.361,4.968-4.268,7.883
	C0.366,18.538,0,20.864,0,23.274v372.364v93.091c0,12.853,10.42,23.273,23.273,23.273H256h232.727
	c12.853,0,23.273-10.42,23.273-23.273v-93.091V23.274C512,10.421,501.58,0.001,488.727,0.001z"/>
<path style="fill:#A78966;" d="M507.412,381.763l-18.685-25.166l-74.406-100.214c-4.389-5.914-11.32-9.399-18.685-9.399
	c-7.365,0-14.296,3.486-18.685,9.399l-73.745,99.322L256,287.518l-73.956-106.826c-4.347-6.277-11.498-10.024-19.135-10.024
	s-14.787,3.747-19.135,10.026L46.545,321.135l-23.273,33.617L4.138,382.39C1.444,386.281,0,390.903,0,395.637v93.091
	c0,12.853,10.42,23.273,23.273,23.273H256h232.727c12.853,0,23.273-10.42,23.273-23.273v-93.091
	C512,390.64,510.391,385.776,507.412,381.763z"/>
<path style="fill:#9BC9FF;" d="M23.273,0.001C10.42,0.001,0,10.421,0,23.274v372.364c0-4.734,1.444-9.356,4.138-13.247l19.135-27.64
	l23.273-33.617l97.229-140.442c4.347-6.277,11.498-10.024,19.135-10.024s14.787,3.747,19.135,10.026L256,287.518V183.129v-55.954
	V0.001H23.273z"/>
<path style="fill:#806749;" d="M182.044,180.693c-4.347-6.279-11.498-10.026-19.135-10.026s-14.787,3.747-19.135,10.026
	L46.545,321.135l-23.273,33.617L4.138,382.39C1.444,386.281,0,390.903,0,395.637v93.091c0,12.853,10.42,23.273,23.273,23.273H256
	V287.518L182.044,180.693z"/>
<circle style="fill:#FFB655;" cx="302.545" cy="155.152" r="54.303"/>
<g>
	<path style="fill:#AF2E08;" d="M8.353,506.572l-0.002-0.002c0.312,0.261,0.63,0.517,0.956,0.76c-0.002,0-0.002,0-0.002,0
		C8.982,507.086,8.665,506.833,8.353,506.572z"/>
	<path style="fill:#AF2E08;" d="M5.388,503.613c0,0-0.002-0.002-0.003-0.002c0.385,0.459,0.784,0.906,1.199,1.334
		c0,0,0,0-0.002-0.002C6.167,504.516,5.77,504.073,5.388,503.613z"/>
	<path style="fill:#AF2E08;" d="M1.434,496.782L1.434,496.782c0.211,0.571,0.445,1.129,0.7,1.68
		c-0.002-0.002-0.002-0.002-0.002-0.002C1.879,497.911,1.646,497.353,1.434,496.782z"/>
	<path style="fill:#AF2E08;" d="M3.289,500.637c-0.002-0.002-0.002-0.003-0.003-0.005c0.208,0.346,0.422,0.686,0.645,1.021
		c-0.002-0.002-0.002-0.002-0.002-0.003C3.708,501.319,3.494,500.98,3.289,500.637z"/>
	<path style="fill:#AF2E08;" d="M9.821,507.709c0.118,0.084,0.231,0.175,0.351,0.259C10.052,507.885,9.941,507.793,9.821,507.709
		L9.821,507.709z"/>
	<path style="fill:#AF2E08;" d="M2.358,498.914c-0.002-0.002-0.003-0.005-0.005-0.006c0.194,0.397,0.396,0.79,0.611,1.174
		c0,0,0-0.002-0.002-0.003C2.748,499.697,2.549,499.308,2.358,498.914z"/>
	<path style="fill:#AF2E08;" d="M6.833,505.187c-0.002-0.002-0.003-0.003-0.006-0.006c0.346,0.344,0.698,0.68,1.063,1.002l0,0
		C7.528,505.861,7.176,505.529,6.833,505.187z"/>
	<path style="fill:#AF2E08;" d="M0.442,493.199L0.442,493.199c0.079,0.411,0.172,0.818,0.273,1.223c0,0,0-0.002,0-0.003
		C0.614,494.016,0.523,493.611,0.442,493.199z"/>
	<path style="fill:#AF2E08;" d="M0,488.728c0,0.647,0.034,1.285,0.085,1.918l0,0C0.034,490.013,0,489.375,0,488.728z"/>
	<path style="fill:#AF2E08;" d="M0.15,491.245C0.15,491.243,0.149,491.243,0.15,491.245c0.047,0.433,0.101,0.864,0.171,1.291l0,0
		C0.251,492.109,0.197,491.677,0.15,491.245z"/>
	<path style="fill:#AF2E08;" d="M4.29,502.178c0,0-0.002-0.002-0.002-0.003c0.254,0.358,0.521,0.707,0.797,1.052
		c-0.003-0.002-0.005-0.005-0.006-0.008C4.808,502.879,4.543,502.533,4.29,502.178z"/>
	<path style="fill:#AF2E08;" d="M0.874,495.03c0,0,0-0.002-0.002-0.002c0.135,0.479,0.287,0.951,0.45,1.417
		c0-0.002,0-0.005-0.002-0.006C1.157,495.975,1.005,495.507,0.874,495.03z"/>
	<path style="fill:#AF2E08;" d="M509.038,500.079c-0.002,0.002-0.002,0.003-0.002,0.003c0.216-0.383,0.417-0.777,0.611-1.173
		c-0.002,0.002-0.003,0.005-0.005,0.006C509.451,499.308,509.251,499.697,509.038,500.079z"/>
	<path style="fill:#AF2E08;" d="M504.109,506.183L504.109,506.183c0.365-0.321,0.718-0.656,1.063-1.001
		c-0.003,0.002-0.005,0.003-0.006,0.006C504.824,505.529,504.472,505.861,504.109,506.183z"/>
	<path style="fill:#AF2E08;" d="M509.868,498.461c0,0,0,0.002-0.002,0.003c0.254-0.551,0.489-1.109,0.7-1.682v0.002
		C510.354,497.353,510.121,497.911,509.868,498.461z"/>
	<path style="fill:#AF2E08;" d="M511.285,494.419c0,0.002,0,0.002,0,0.002c0.099-0.403,0.194-0.81,0.273-1.223l0,0
		C511.477,493.611,511.384,494.016,511.285,494.419z"/>
	<path style="fill:#AF2E08;" d="M511.679,492.535L511.679,492.535c0.07-0.427,0.124-0.858,0.172-1.292c0,0-0.002,0-0.002,0.002
		C511.803,491.677,511.749,492.109,511.679,492.535z"/>
	<path style="fill:#AF2E08;" d="M505.417,504.944C505.415,504.946,505.415,504.946,505.417,504.944
		c0.416-0.427,0.815-0.873,1.199-1.333c-0.002,0-0.003,0-0.003,0C506.23,504.073,505.833,504.516,505.417,504.944z"/>
	<path style="fill:#AF2E08;" d="M510.68,496.439c-0.002,0.002-0.002,0.005-0.002,0.006c0.163-0.465,0.315-0.937,0.45-1.417
		c-0.002,0-0.002,0-0.002,0C510.995,495.507,510.843,495.975,510.68,496.439z"/>
	<path style="fill:#AF2E08;" d="M508.07,501.651c0,0.002,0,0.002-0.002,0.003c0.223-0.334,0.438-0.675,0.645-1.021
		c-0.002,0.002-0.002,0.003-0.003,0.005C508.506,500.98,508.292,501.319,508.07,501.651z"/>
	<path style="fill:#AF2E08;" d="M506.922,503.221c-0.002,0.002-0.003,0.005-0.006,0.008c0.276-0.344,0.543-0.694,0.797-1.052
		c0,0.002-0.002,0.002-0.002,0.002C507.457,502.533,507.192,502.879,506.922,503.221z"/>
	<path style="fill:#AF2E08;" d="M511.915,490.646c0.051-0.633,0.085-1.271,0.085-1.918C512,489.375,511.966,490.013,511.915,490.646
		L511.915,490.646z"/>
	<path style="fill:#AF2E08;" d="M501.827,507.967c0.119-0.082,0.233-0.174,0.352-0.259l0,0
		C502.059,507.793,501.946,507.885,501.827,507.967z"/>
	<path style="fill:#AF2E08;" d="M502.694,507.331c0,0,0,0-0.002,0c0.326-0.245,0.644-0.5,0.956-0.76l-0.002,0.002
		C503.335,506.833,503.018,507.086,502.694,507.331z"/>
</g>
<path style="fill:#424EDE;" d="M488.727,0.001h-93.091c-12.853,0-23.273,10.42-23.273,23.273s10.42,23.273,23.273,23.273h69.818
	v69.818c0,12.853,10.42,23.273,23.273,23.273S512,129.217,512,116.364V23.274C512,10.421,501.58,0.001,488.727,0.001z"/>
<g>
	<path style="fill:#222224;" d="M11.342,508.705c-0.16-0.095-0.313-0.199-0.47-0.296C11.028,508.508,11.182,508.611,11.342,508.705z
		"/>
	<path style="fill:#222224;" d="M0.872,495.029c-0.056-0.2-0.104-0.405-0.157-0.608C0.766,494.624,0.815,494.829,0.872,495.029z"/>
	<path style="fill:#222224;" d="M2.354,498.908c-0.073-0.149-0.152-0.293-0.22-0.445C2.202,498.614,2.281,498.759,2.354,498.908z"/>
	<path style="fill:#222224;" d="M3.286,500.633c-0.109-0.183-0.219-0.365-0.323-0.551C3.067,500.268,3.178,500.451,3.286,500.633z"
		/>
	<path style="fill:#222224;" d="M0.442,493.198c-0.042-0.22-0.085-0.441-0.121-0.663C0.357,492.757,0.4,492.978,0.442,493.198z"/>
</g>
<path style="fill:#424EDE;" d="M139.636,488.728c0-12.853-10.42-23.273-23.273-23.273H46.545v-62.549v-7.269
	c0-7.93-3.975-14.926-10.032-19.127c-3.759-2.608-8.318-4.146-13.241-4.146c-7.979,0-15.014,4.018-19.206,10.139
	c-0.129,0.186-0.242,0.382-0.365,0.573c-0.24,0.375-0.476,0.754-0.694,1.142c-0.143,0.253-0.278,0.507-0.411,0.765
	c-0.178,0.351-0.349,0.704-0.51,1.063c-0.123,0.27-0.248,0.54-0.36,0.816c-0.183,0.45-0.346,0.906-0.5,1.367
	c-0.11,0.329-0.214,0.663-0.31,0.999c-0.135,0.47-0.261,0.943-0.365,1.421c-0.057,0.262-0.104,0.529-0.154,0.796
	c-0.084,0.453-0.154,0.909-0.209,1.368c-0.029,0.237-0.059,0.473-0.082,0.714C0.042,394.225,0,394.93,0,395.637v93.091
	c0,0.647,0.034,1.285,0.085,1.918c0.017,0.2,0.042,0.399,0.065,0.599c0.047,0.433,0.101,0.864,0.171,1.291
	c0.036,0.223,0.079,0.444,0.121,0.664c0.081,0.411,0.172,0.816,0.273,1.22c0.051,0.205,0.099,0.41,0.158,0.613
	c0.133,0.476,0.285,0.945,0.447,1.409c0.039,0.113,0.073,0.23,0.113,0.343c0.213,0.571,0.445,1.13,0.698,1.677
	c0.071,0.154,0.15,0.301,0.227,0.455c0.191,0.394,0.391,0.784,0.605,1.164c0.106,0.189,0.217,0.374,0.327,0.559
	c0.205,0.343,0.419,0.68,0.641,1.012c0.118,0.177,0.236,0.354,0.358,0.529c0.253,0.355,0.518,0.701,0.79,1.041
	c0.102,0.13,0.203,0.264,0.309,0.393c0.382,0.459,0.779,0.903,1.195,1.331c0.081,0.084,0.168,0.161,0.25,0.242
	c0.343,0.341,0.694,0.675,1.058,0.995c0.152,0.133,0.307,0.261,0.462,0.391c0.31,0.261,0.628,0.515,0.953,0.759
	c0.169,0.129,0.343,0.254,0.515,0.379c0.343,0.244,0.694,0.476,1.05,0.7c0.157,0.099,0.31,0.202,0.47,0.296
	c2.205,1.32,4.642,2.29,7.241,2.822c1.514,0.312,3.084,0.475,4.69,0.475h93.091C129.216,512.001,139.636,501.581,139.636,488.728z"
	/>
<g>
	<path style="fill:#222224;" d="M1.434,496.78c-0.04-0.11-0.073-0.225-0.112-0.335C1.361,496.557,1.392,496.672,1.434,496.78z"/>
	<path style="fill:#222224;" d="M5.385,503.612c-0.102-0.126-0.2-0.256-0.299-0.383C5.187,503.356,5.281,503.486,5.385,503.612z"/>
	<path style="fill:#222224;" d="M4.288,502.177c-0.121-0.171-0.239-0.348-0.357-0.521C4.048,501.829,4.166,502.004,4.288,502.177z"
		/>
	<path style="fill:#222224;" d="M8.352,506.57c-0.155-0.129-0.309-0.256-0.461-0.388C8.043,506.316,8.197,506.443,8.352,506.57z"/>
	<path style="fill:#222224;" d="M6.827,505.18c-0.079-0.079-0.164-0.154-0.242-0.234C6.664,505.027,6.749,505.101,6.827,505.18z"/>
	<path style="fill:#222224;" d="M0.149,491.243c-0.022-0.199-0.047-0.397-0.064-0.597C0.101,490.846,0.127,491.044,0.149,491.243z"
		/>
	<path style="fill:#222224;" d="M9.821,507.709c-0.172-0.124-0.344-0.25-0.514-0.377C9.477,507.459,9.649,507.585,9.821,507.709z"/>
	<path style="fill:#222224;" d="M3.93,501.651c0,0.002,0,0.002,0.002,0.003c0.116,0.175,0.234,0.351,0.357,0.521
		c0,0.002,0.002,0.002,0.002,0.002C4.166,502.004,4.048,501.827,3.93,501.651z"/>
	<path style="fill:#222224;" d="M2.962,500.079c0.002,0.002,0.002,0.003,0.002,0.003c0.104,0.188,0.214,0.369,0.323,0.552
		c0.002,0.002,0.002,0.003,0.003,0.005C3.179,500.453,3.067,500.268,2.962,500.079z"/>
	<path style="fill:#222224;" d="M1.32,496.439c0.002,0.002,0.002,0.005,0.002,0.006c0.039,0.112,0.071,0.227,0.112,0.335v0.002
		C1.392,496.67,1.359,496.552,1.32,496.439z"/>
	<path style="fill:#222224;" d="M0.085,490.646L0.085,490.646c0.017,0.2,0.042,0.399,0.064,0.597c0,0,0.002,0,0.002,0.002
		C0.127,491.044,0.101,490.846,0.085,490.646z"/>
	<path style="fill:#222224;" d="M6.583,504.944C6.585,504.946,6.585,504.946,6.583,504.944c0.081,0.082,0.164,0.157,0.244,0.236
		c0.003,0.002,0.005,0.003,0.006,0.006C6.752,505.106,6.664,505.028,6.583,504.944z"/>
	<path style="fill:#222224;" d="M2.132,498.461c0,0,0,0.002,0.002,0.003c0.068,0.15,0.147,0.295,0.22,0.445
		c0.002,0.002,0.003,0.005,0.005,0.006C2.282,498.762,2.203,498.614,2.132,498.461z"/>
	<path style="fill:#222224;" d="M0.715,494.419c0,0.002,0,0.002,0,0.002c0.051,0.203,0.099,0.408,0.157,0.608
		c0.002,0,0.002,0,0.002,0C0.815,494.829,0.766,494.622,0.715,494.419z"/>
	<path style="fill:#222224;" d="M0.321,492.535L0.321,492.535c0.036,0.223,0.079,0.444,0.121,0.663l0,0
		C0.4,492.979,0.357,492.757,0.321,492.535z"/>
	<path style="fill:#222224;" d="M5.078,503.221c0.002,0.002,0.003,0.005,0.006,0.008c0.101,0.127,0.197,0.259,0.299,0.383
		c0.002,0,0.003,0,0.003,0C5.281,503.484,5.182,503.351,5.078,503.221z"/>
	<path style="fill:#222224;" d="M7.891,506.183L7.891,506.183c0.152,0.133,0.306,0.261,0.461,0.389l0.002,0.002
		C8.198,506.443,8.043,506.316,7.891,506.183z"/>
	<path style="fill:#222224;" d="M9.306,507.331C9.306,507.331,9.306,507.332,9.306,507.331c0.171,0.129,0.343,0.254,0.515,0.379l0,0
		C9.649,507.585,9.475,507.459,9.306,507.331z"/>
	<path style="fill:#222224;" d="M501.129,508.409c-0.157,0.099-0.31,0.202-0.47,0.296
		C500.818,508.611,500.972,508.508,501.129,508.409z"/>
</g>
<path style="fill:#424EDE;" d="M511.8,392.73c-0.056-0.441-0.121-0.877-0.202-1.313c-0.056-0.303-0.115-0.604-0.183-0.901
	c-0.085-0.382-0.186-0.759-0.292-1.136c-0.085-0.306-0.164-0.613-0.264-0.914c-0.137-0.422-0.296-0.838-0.458-1.251
	c-0.166-0.428-0.346-0.85-0.537-1.264c-0.178-0.394-0.36-0.788-0.563-1.171c-0.143-0.268-0.298-0.529-0.451-0.791
	c-0.199-0.343-0.4-0.681-0.618-1.015c-0.161-0.248-0.331-0.492-0.501-0.735c-4.212-5.967-11.148-9.874-19.004-9.874
	c-5.201,0-9.986,1.725-13.858,4.608c-5.702,4.242-9.415,11.011-9.415,18.665v7.695v62.123h-69.818
	c-12.853,0-23.273,10.42-23.273,23.273c0,12.853,10.42,23.273,23.273,23.273h93.091c1.606,0,3.176-0.163,4.69-0.473
	c2.599-0.532,5.036-1.502,7.241-2.822c0.16-0.095,0.313-0.199,0.47-0.296c0.355-0.225,0.707-0.456,1.05-0.7
	c0.172-0.124,0.346-0.25,0.515-0.379c0.324-0.244,0.642-0.498,0.953-0.759c0.155-0.129,0.31-0.258,0.462-0.391
	c0.363-0.32,0.715-0.653,1.058-0.995c0.082-0.082,0.169-0.16,0.25-0.242c0.417-0.428,0.815-0.873,1.196-1.331
	c0.105-0.129,0.206-0.262,0.309-0.393c0.271-0.34,0.537-0.686,0.79-1.041c0.123-0.174,0.24-0.352,0.358-0.529
	c0.223-0.332,0.436-0.669,0.641-1.012c0.11-0.186,0.222-0.371,0.327-0.559c0.214-0.382,0.414-0.771,0.605-1.164
	c0.076-0.152,0.155-0.299,0.227-0.455c0.253-0.548,0.486-1.108,0.698-1.677c0.04-0.113,0.074-0.23,0.113-0.343
	c0.161-0.464,0.313-0.932,0.447-1.409c0.057-0.202,0.105-0.408,0.158-0.613c0.099-0.402,0.192-0.808,0.273-1.219
	c0.042-0.22,0.085-0.442,0.121-0.664c0.07-0.427,0.124-0.858,0.171-1.291c0.023-0.2,0.048-0.397,0.065-0.599
	c0.051-0.633,0.085-1.271,0.085-1.918v-93.091c0-0.717-0.042-1.43-0.107-2.14C511.868,393.238,511.831,392.984,511.8,392.73z"/>
<g>
	<path style="fill:#222224;" d="M511.285,494.421c-0.051,0.203-0.101,0.406-0.157,0.608
		C511.185,494.829,511.234,494.624,511.285,494.421z"/>
	<path style="fill:#222224;" d="M511.915,490.646c-0.017,0.2-0.042,0.399-0.064,0.597
		C511.873,491.044,511.899,490.846,511.915,490.646z"/>
	<path style="fill:#222224;" d="M511.679,492.535c-0.036,0.222-0.079,0.442-0.121,0.663
		C511.6,492.978,511.643,492.757,511.679,492.535z"/>
	<path style="fill:#222224;" d="M506.916,503.229c-0.099,0.127-0.197,0.259-0.299,0.383
		C506.719,503.486,506.813,503.356,506.916,503.229z"/>
	<path style="fill:#222224;" d="M505.415,504.946c-0.079,0.081-0.163,0.155-0.242,0.234
		C505.251,505.101,505.336,505.027,505.415,504.946z"/>
	<path style="fill:#222224;" d="M509.867,498.462c-0.068,0.15-0.147,0.295-0.22,0.445
		C509.719,498.759,509.798,498.614,509.867,498.462z"/>
	<path style="fill:#222224;" d="M502.692,507.332c-0.169,0.129-0.341,0.254-0.514,0.377
		C502.351,507.585,502.523,507.459,502.692,507.332z"/>
	<path style="fill:#222224;" d="M508.068,501.654c-0.116,0.175-0.234,0.351-0.355,0.521
		C507.833,502.004,507.952,501.829,508.068,501.654z"/>
	<path style="fill:#222224;" d="M504.109,506.183c-0.152,0.132-0.306,0.259-0.461,0.388
		C503.803,506.443,503.957,506.316,504.109,506.183z"/>
	<path style="fill:#222224;" d="M510.678,496.445c-0.039,0.112-0.071,0.227-0.112,0.335
		C510.607,496.672,510.639,496.557,510.678,496.445z"/>
	<path style="fill:#222224;" d="M509.037,500.082c-0.104,0.186-0.214,0.369-0.323,0.551
		C508.822,500.451,508.931,500.268,509.037,500.082z"/>
	<path style="fill:#222224;" d="M505.167,505.187c0.002-0.002,0.003-0.003,0.006-0.006c0.079-0.079,0.163-0.154,0.242-0.234
		c0,0,0,0,0.002-0.002C505.336,505.028,505.248,505.106,505.167,505.187z"/>
	<path style="fill:#222224;" d="M509.642,498.914c0.002-0.002,0.003-0.005,0.005-0.006c0.073-0.149,0.152-0.293,0.22-0.445
		c0.002-0.002,0.002-0.002,0.002-0.002C509.797,498.614,509.718,498.762,509.642,498.914z"/>
	<path style="fill:#222224;" d="M507.71,502.178c0,0,0.002-0.002,0.002-0.003c0.121-0.171,0.239-0.348,0.355-0.521
		c0.002-0.002,0.002-0.002,0.002-0.003C507.952,501.827,507.833,502.004,507.71,502.178z"/>
	<path style="fill:#222224;" d="M510.566,496.782L510.566,496.782c0.04-0.112,0.073-0.227,0.112-0.337c0-0.002,0-0.005,0.002-0.006
		C510.641,496.552,510.607,496.67,510.566,496.782z"/>
	<path style="fill:#222224;" d="M511.85,491.245c0-0.002,0.002-0.002,0.002-0.002c0.022-0.199,0.047-0.397,0.064-0.597l0,0
		C511.899,490.846,511.873,491.044,511.85,491.245z"/>
	<path style="fill:#222224;" d="M511.558,493.199L511.558,493.199c0.042-0.222,0.085-0.442,0.121-0.664l0,0
		C511.643,492.757,511.6,492.979,511.558,493.199z"/>
	<path style="fill:#222224;" d="M511.128,495.03c0,0,0-0.002,0.002-0.002c0.056-0.2,0.104-0.405,0.157-0.608c0,0,0-0.002,0-0.003
		C511.234,494.622,511.185,494.829,511.128,495.03z"/>
	<path style="fill:#222224;" d="M502.179,507.709L502.179,507.709c0.172-0.124,0.344-0.25,0.514-0.377c0.002,0,0.002,0,0.002,0
		C502.525,507.459,502.351,507.585,502.179,507.709z"/>
	<path style="fill:#222224;" d="M508.711,500.637c0.002-0.002,0.002-0.003,0.003-0.005c0.109-0.183,0.219-0.365,0.323-0.551
		c0,0,0-0.002,0.002-0.003C508.931,500.268,508.821,500.453,508.711,500.637z"/>
	<path style="fill:#222224;" d="M506.612,503.613c0,0,0.002-0.002,0.003-0.002c0.102-0.126,0.2-0.256,0.299-0.383
		c0.003-0.002,0.005-0.005,0.006-0.008C506.818,503.351,506.719,503.484,506.612,503.613z"/>
	<path style="fill:#222224;" d="M503.647,506.572l0.002-0.002c0.155-0.129,0.309-0.256,0.461-0.388l0,0
		C503.957,506.316,503.802,506.443,503.647,506.572z"/>
</g>
<path style="fill:#424EDE;" d="M23.273,139.637c12.853,0,23.273-10.42,23.273-23.273V46.546h69.818
	c12.853,0,23.273-10.42,23.273-23.273s-10.42-23.273-23.273-23.273H23.273C10.42,0.001,0,10.421,0,23.274v93.091
	C0,129.217,10.42,139.637,23.273,139.637z"/>
</svg>